<svg xmlns="http://www.w3.org/2000/svg" xmlns:xlink="http://www.w3.org/1999/xlink" width="4096" zoomAndPan="magnify" viewBox="0 0 3072 1619.99993" height="2160" preserveAspectRatio="xMidYMid meet" version="1.0"><defs><g/><clipPath id="d20eb07078"><path d="M 0.839844 19 L 906 19 L 906 926.878906 L 0.839844 926.878906 Z M 0.839844 19 " clip-rule="nonzero"/></clipPath><clipPath id="6a668175c5"><path d="M 23 0.441406 L 905.878906 0.441406 L 905.878906 747 L 23 747 Z M 23 0.441406 " clip-rule="nonzero"/></clipPath><clipPath id="f306824808"><rect x="0" width="906" y="0" height="908"/></clipPath><clipPath id="6c4bea2ceb"><path d="M 538 19 L 1385 19 L 1385 926.878906 L 538 926.878906 Z M 538 19 " clip-rule="nonzero"/></clipPath><clipPath id="c0ac97b944"><path d="M 41 0.441406 L 846.921875 0.441406 L 846.921875 747 L 41 747 Z M 41 0.441406 " clip-rule="nonzero"/></clipPath><clipPath id="e4dc70da31"><rect x="0" width="847" y="0" height="908"/></clipPath><clipPath id="865b1dacd2"><path d="M 1047 19 L 1870 19 L 1870 926.878906 L 1047 926.878906 Z M 1047 19 " clip-rule="nonzero"/></clipPath><clipPath id="d136382bad"><path d="M 0.480469 0.441406 L 822.71875 0.441406 L 822.71875 747 L 0.480469 747 Z M 0.480469 0.441406 " clip-rule="nonzero"/></clipPath><clipPath id="3099b8bfa0"><rect x="0" width="823" y="0" height="908"/></clipPath><clipPath id="00350043b0"><path d="M 1522 0.960938 L 1928 0.960938 L 1928 873 L 1522 873 Z M 1522 0.960938 " clip-rule="nonzero"/></clipPath><clipPath id="fb7ba5f697"><rect x="0" width="406" y="0" height="873"/></clipPath><clipPath id="ebf4e30bbc"><path d="M 1635 19 L 2393 19 L 2393 926.878906 L 1635 926.878906 Z M 1635 19 " clip-rule="nonzero"/></clipPath><clipPath id="7dca69c4ca"><path d="M 91 0.441406 L 752 0.441406 L 752 747 L 91 747 Z M 91 0.441406 " clip-rule="nonzero"/></clipPath><clipPath id="fe478669c5"><rect x="0" width="758" y="0" height="908"/></clipPath><clipPath id="b4562ce8e4"><path d="M 2055 19 L 2857.558594 19 L 2857.558594 926.878906 L 2055 926.878906 Z M 2055 19 " clip-rule="nonzero"/></clipPath><clipPath id="40156fea97"><path d="M 123 0.441406 L 802.558594 0.441406 L 802.558594 747 L 123 747 Z M 123 0.441406 " clip-rule="nonzero"/></clipPath><clipPath id="0fa17c394a"><rect x="0" width="803" y="0" height="908"/></clipPath><clipPath id="4ba44f8bbd"><rect x="0" width="2858" y="0" height="927"/></clipPath></defs><g transform="matrix(1, 0, 0, 1, 93, 402)"><g clip-path="url(#4ba44f8bbd)"><g clip-path="url(#d20eb07078)"><g transform="matrix(1, 0, 0, 1, 0, 19)"><g clip-path="url(#f306824808)"><g clip-path="url(#6a668175c5)"><g fill="#ffffff" fill-opacity="1"><g transform="translate(1.148861, 712.048957)"><g><path d="M 394.453125 -156.90625 L 637.9375 -710.367188 L 906.773438 -710.367188 L 748.125 34.140625 L 546.445312 34.140625 L 675.800781 -572.214844 L 709.191406 -565.09375 L 709.191406 -530.953125 L 707.308594 -530.953125 L 707.308594 -565.09375 L 738.597656 -551.429688 L 482.898438 34.140625 L 288.132812 34.140625 L 285.136719 -564.921875 L 319.277344 -565.09375 L 319.277344 -530.953125 L 317.394531 -530.953125 L 317.394531 -565.09375 L 350.785156 -557.96875 L 224.46875 34.140625 L 22.800781 34.140625 L 181.453125 -710.367188 L 448.945312 -710.367188 L 457.957031 -143.699219 L 423.820312 -143.15625 L 423.820312 -177.296875 L 425.703125 -177.296875 L 425.703125 -143.15625 Z M 447.984375 -109.015625 L 390.21875 -109.015625 L 381.207031 -675.683594 L 415.34375 -676.226562 L 415.34375 -642.085938 L 209.085938 -642.085938 L 209.085938 -676.226562 L 242.476562 -669.113281 L 98.378906 7.117188 L 64.984375 0 L 64.984375 -34.140625 L 196.839844 -34.140625 L 196.839844 0 L 163.449219 -7.125 L 289.769531 -599.234375 L 353.25 -599.234375 L 356.242188 -0.171875 L 322.101562 0 L 322.101562 -34.140625 L 460.550781 -34.140625 L 460.550781 0 L 429.261719 -13.664062 L 684.960938 -599.234375 L 751.382812 -599.234375 L 622.027344 7.125 L 588.636719 0 L 588.636719 -34.140625 L 720.492188 -34.140625 L 720.492188 0 L 687.101562 -7.117188 L 831.199219 -683.34375 L 864.59375 -676.226562 L 864.59375 -642.085938 L 660.21875 -642.085938 L 660.21875 -676.226562 L 691.46875 -662.480469 L 456.953125 -129.410156 Z M 447.984375 -109.015625 "/></g></g></g></g><g fill="#ffffff" fill-opacity="1"><g transform="translate(1.148861, 712.048957)"><g><path d="M 425.703125 -143.15625 L 660.203125 -676.21875 L 864.578125 -676.21875 L 720.484375 0 L 588.625 0 L 709.1875 -565.078125 L 707.296875 -565.078125 L 460.546875 0 L 322.109375 0 L 319.28125 -565.078125 L 317.390625 -565.078125 L 196.84375 0 L 64.984375 0 L 209.078125 -676.21875 L 415.34375 -676.21875 L 423.828125 -143.15625 Z M 425.703125 -143.15625 "/></g></g></g></g></g></g><g clip-path="url(#6c4bea2ceb)"><g transform="matrix(1, 0, 0, 1, 538, 19)"><g clip-path="url(#e4dc70da31)"><g clip-path="url(#c0ac97b944)"><g fill="#ffffff" fill-opacity="1"><g transform="translate(1.860136, 712.048957)"><g><path d="M 625.371094 -710.367188 L 903.039062 -710.367188 L 494.535156 -373.007812 L 472.792969 -399.332031 L 503.097656 -415.054688 L 736.171875 34.140625 L 476.972656 34.140625 L 321.609375 -281.601562 L 352.242188 -296.671875 L 374.308594 -270.621094 L 294.253906 -202.8125 L 272.1875 -228.863281 L 305.570312 -221.71875 L 250.820312 34.140625 L 39.753906 34.140625 L 198.40625 -710.367188 L 409.460938 -710.367188 L 342.3125 -394.125 L 308.917969 -401.214844 L 286.523438 -426.984375 L 612.605469 -710.367188 Z M 625.371094 -642.085938 L 625.371094 -676.226562 L 647.765625 -650.457031 L 254.339844 -308.554688 L 333.914062 -683.320312 L 367.308594 -676.226562 L 367.308594 -642.085938 L 226.039062 -642.085938 L 226.039062 -676.226562 L 259.429688 -669.113281 L 115.332031 7.117188 L 81.9375 0 L 81.9375 -34.140625 L 223.210938 -34.140625 L 223.210938 0 L 189.828125 -7.144531 L 241.238281 -247.390625 L 363.558594 -351.003906 L 528.855469 -15.074219 L 498.222656 0 L 498.222656 -34.140625 L 679.996094 -34.140625 L 679.996094 0 L 649.691406 15.722656 L 429.785156 -408.09375 L 786.34375 -702.550781 L 808.082031 -676.226562 L 808.082031 -642.085938 Z M 625.371094 -642.085938 "/></g></g></g></g><g fill="#ffffff" fill-opacity="1"><g transform="translate(1.860136, 712.048957)"><g><path d="M 625.359375 -676.21875 L 808.078125 -676.21875 L 472.796875 -399.328125 L 679.984375 0 L 498.234375 0 L 352.25 -296.671875 L 272.1875 -228.859375 L 223.21875 0 L 81.9375 0 L 226.03125 -676.21875 L 367.3125 -676.21875 L 308.921875 -401.21875 Z M 625.359375 -676.21875 "/></g></g></g></g></g></g><g clip-path="url(#865b1dacd2)"><g transform="matrix(1, 0, 0, 1, 1047, 19)"><g clip-path="url(#3099b8bfa0)"><g clip-path="url(#d136382bad)"><g fill="#ffffff" fill-opacity="1"><g transform="translate(36.271562, 712.048957)"><g><path d="M 582.046875 -710.367188 L 818.769531 -710.367188 L 495.050781 -329.199219 L 469.027344 -351.300781 L 500.554688 -364.402344 L 666.167969 34.140625 L 418.269531 34.140625 L 331.246094 -219.671875 L 363.542969 -230.746094 L 390.148438 -209.351562 L 194.359375 34.140625 L -60.34375 34.140625 L 279.066406 -367.679688 L 305.148438 -345.648438 L 273.5625 -332.691406 L 118.617188 -710.367188 L 362.65625 -710.367188 L 443.9375 -468.605469 L 411.574219 -457.726562 L 384.65625 -478.726562 L 565.378906 -710.367188 Z M 582.046875 -642.085938 L 582.046875 -676.226562 L 608.964844 -655.226562 L 399.445312 -386.671875 L 305.753906 -665.347656 L 338.113281 -676.226562 L 338.113281 -642.085938 L 169.527344 -642.085938 L 169.527344 -676.226562 L 201.113281 -689.1875 L 344.597656 -339.441406 L 39.265625 22.03125 L 13.183594 0 L 13.183594 -34.140625 L 178.003906 -34.140625 L 178.003906 0 L 151.398438 -21.394531 L 375.75 -300.410156 L 474.953125 -11.074219 L 442.65625 0 L 442.65625 -34.140625 L 615.007812 -34.140625 L 615.007812 0 L 583.480469 13.101562 L 429.484375 -357.484375 L 718.957031 -698.328125 L 744.980469 -676.226562 L 744.980469 -642.085938 Z M 582.046875 -642.085938 "/></g></g></g></g><g fill="#ffffff" fill-opacity="1"><g transform="translate(36.271562, 712.048957)"><g><path d="M 582.03125 -676.21875 L 744.96875 -676.21875 L 469.03125 -351.296875 L 615 0 L 442.65625 0 L 363.546875 -230.75 L 178 0 L 13.1875 0 L 305.15625 -345.65625 L 169.53125 -676.21875 L 338.109375 -676.21875 L 411.578125 -457.734375 Z M 582.03125 -676.21875 "/></g></g></g></g></g></g><g clip-path="url(#00350043b0)"><g transform="matrix(1, 0, 0, 1, 1522, -0.000000000000113687)"><g clip-path="url(#fb7ba5f697)"><g fill="#ffffff" fill-opacity="1"><g transform="translate(1.937415, 676.247194)"><g><path d="M 35.324219 -209.433594 L 66.402344 -359.070312 L 398.910156 -359.070312 L 359.300781 -168.351562 L 26.792969 -168.351562 Z M 102.179688 -195.550781 L 68.753906 -202.492188 L 68.753906 -236.632812 L 331.519531 -236.632812 L 331.519531 -202.492188 L 298.09375 -209.433594 L 323.523438 -331.871094 L 356.949219 -324.929688 L 356.949219 -290.785156 L 94.183594 -290.785156 L 94.183594 -324.929688 L 127.609375 -317.984375 Z M 102.179688 -195.550781 "/></g></g></g><g fill="#ffffff" fill-opacity="1"><g transform="translate(1.937415, 676.247194)"><g><path d="M 68.75 -202.5 L 94.1875 -324.9375 L 356.953125 -324.9375 L 331.53125 -202.5 Z M 68.75 -202.5 "/></g></g></g></g></g></g><g clip-path="url(#ebf4e30bbc)"><g transform="matrix(1, 0, 0, 1, 1635, 19)"><g clip-path="url(#fe478669c5)"><g clip-path="url(#7dca69c4ca)"><g fill="#ffffff" fill-opacity="1"><g transform="translate(1.537371, 712.048957)"><g><path d="M 510.894531 -549.496094 L 386.464844 34.140625 L 175.375 34.140625 L 302.839844 -563.734375 L 336.230469 -556.617188 L 336.230469 -522.476562 L 89.691406 -522.476562 L 129.636719 -710.367188 L 749.46875 -710.367188 L 709.523438 -522.476562 L 477.503906 -522.476562 L 477.503906 -556.617188 Z M 449.875 -590.757812 L 681.878906 -590.757812 L 681.878906 -556.617188 L 648.484375 -563.714844 L 673.914062 -683.328125 L 707.308594 -676.226562 L 707.308594 -642.085938 L 157.285156 -642.085938 L 157.285156 -676.226562 L 190.679688 -669.128906 L 165.25 -549.515625 L 131.855469 -556.617188 L 131.855469 -590.757812 L 378.417969 -590.757812 L 250.953125 7.117188 L 217.5625 0 L 217.5625 -34.140625 L 358.832031 -34.140625 L 358.832031 0 L 325.441406 -7.117188 L 444.113281 -563.734375 Z M 449.875 -590.757812 "/></g></g></g></g><g fill="#ffffff" fill-opacity="1"><g transform="translate(1.537371, 712.048957)"><g><path d="M 477.5 -556.609375 L 358.84375 0 L 217.5625 0 L 336.234375 -556.609375 L 131.859375 -556.609375 L 157.28125 -676.21875 L 707.296875 -676.21875 L 681.875 -556.609375 Z M 477.5 -556.609375 "/></g></g></g></g></g></g><g clip-path="url(#b4562ce8e4)"><g transform="matrix(1, 0, 0, 1, 2055, 19)"><g clip-path="url(#0fa17c394a)"><g clip-path="url(#40156fea97)"><g fill="#ffffff" fill-opacity="1"><g transform="translate(1.145932, 712.048957)"><g><path d="M 320.761719 -179.144531 L 586.375 -710.367188 L 812.289062 -710.367188 L 400.632812 34.140625 L 215.644531 34.140625 L 123.359375 -710.367188 L 345.464844 -710.367188 L 383.472656 -166.257812 L 349.414062 -163.875 L 349.414062 -198.019531 L 351.300781 -198.019531 L 351.300781 -163.875 Z M 372.398438 -129.734375 L 317.574219 -129.734375 L 279.566406 -673.847656 L 313.625 -676.226562 L 313.625 -642.085938 L 161.992188 -642.085938 L 161.992188 -676.226562 L 195.875 -680.425781 L 279.699219 -4.199219 L 245.816406 0 L 245.816406 -34.140625 L 380.496094 -34.140625 L 380.496094 0 L 350.617188 -16.519531 L 724.519531 -692.75 L 754.398438 -676.226562 L 754.398438 -642.085938 L 607.476562 -642.085938 L 607.476562 -676.226562 L 638.011719 -660.960938 Z M 372.398438 -129.734375 "/></g></g></g></g><g fill="#ffffff" fill-opacity="1"><g transform="translate(1.145932, 712.048957)"><g><path d="M 351.296875 -163.875 L 607.46875 -676.21875 L 754.390625 -676.21875 L 380.5 0 L 245.8125 0 L 162 -676.21875 L 313.625 -676.21875 L 349.421875 -163.875 Z M 351.296875 -163.875 "/></g></g></g></g></g></g></g></g></svg>